PathFileType	4	(X/Y/Z)	c:\Git\powerlifing_model_clean\simulations\HC835B\Session1\HC835B_OGR_0007\marker_experimental.trc
DataRate	CameraRate	NumFrames	NumMarkers	Units	OrigDataRate	OrigDataStartFrame	OrigNumFrames
240.000000	240.000000	4	38	mm	240.000000	111	223
Frame#	Time	RPSI			LPSI			RASI			LASI			RTH1			RTH2			RTH3			RTH4			RSK1			RSK2			RSK3			RSK4			RCAL1			RCAL2			RCAL3			RST			RPT			RTN			RFMB			RSMB			RVMB			RFMH			RSMH			RVMH			RPM			LTH1			LTH2			LTH3			LTH4			LSK1			LSK2			LSK3			LSK4			LCAL1			LCAL2			LCAL3			LFMH			LVMH			
		X1	Y1	Z1	X2	Y2	Z2	X3	Y3	Z3	X4	Y4	Z4	X5	Y5	Z5	X6	Y6	Z6	X7	Y7	Z7	X8	Y8	Z8	X9	Y9	Z9	X10	Y10	Z10	X11	Y11	Z11	X12	Y12	Z12	X13	Y13	Z13	X14	Y14	Z14	X15	Y15	Z15	X16	Y16	Z16	X17	Y17	Z17	X18	Y18	Z18	X19	Y19	Z19	X20	Y20	Z20	X21	Y21	Z21	X22	Y22	Z22	X23	Y23	Z23	X24	Y24	Z24	X25	Y25	Z25	X26	Y26	Z26	X27	Y27	Z27	X28	Y28	Z28	X29	Y29	Z29	X30	Y30	Z30	X31	Y31	Z31	X32	Y32	Z32	X33	Y33	Z33	X34	Y34	Z34	X35	Y35	Z35	X36	Y36	Z36	X37	Y37	Z37	X38	Y38	Z38	

112	0.4625	513.2743530273439	1158.261474609375	-1405.574584960938	404.5205993652345	1146.291381835938	-1389.78564453125	561.5807495117189	1072.018188476563	-1592.5126953125	332.6542053222657	1078.6259765625	-1582.739990234375	633.5503540039064	789.4370727539065	-1463.022583007813	614.4049682617189	765.1954345703126	-1515.472290039063	619.7270507812501	705.9148559570314	-1464.65625	591.3433837890626	683.2443237304689	-1510.764770507813	606.5092163085939	542.4170532226564	-1112.287475585938	612.7148437500001	480.8453063964845	-1114.553344726563	609.1322021484376	511.9146118164064	-1062.142456054688	603.0670776367189	452.2416076660157	-1064.0009765625	556.9512939453126	532.3852539062501	-930.4717407226565	518.5126953125001	526.2161254882814	-899.650085449219	581.3809204101564	536.3295288085939	-888.4265747070315	515.4685668945314	454.9896240234376	-907.6973266601565	611.9981079101564	479.0191650390626	-887.050720214844	538.2767333984376	400.1516418457032	-917.420837402344	539.5210571289064	372.4717407226563	-894.9439697265627	594.6520385742189	364.4528198242188	-909.315612792969	621.0437011718751	439.3589477539064	-854.1133422851565	536.4077758789064	322.3738403320313	-856.9578857421877	592.8452148437501	312.6966552734376	-862.2613525390627	640.7677612304689	364.6839294433594	-831.044372558594	586.3529052734376	256.5417175292969	-849.542663574219	266.2090759277344	795.177673339844	-1558.54736328125	271.6711730957032	803.6672363281252	-1618.295288085938	277.7967529296876	723.4042968750001	-1604.14892578125	300.4506835937501	733.1467895507814	-1660.366821289063	334.1632080078126	278.1382446289063	-1624.726684570313	327.9623413085938	266.1453552246094	-1677.000122070313	340.0498657226563	226.1936950683594	-1649.369384765625	347.9404296875001	219.1923828125001	-1705.384155273438	413.2186889648439	83.20267486572267	-1617.5771484375	386.820526123047	41.55047225952149	-1622.164428710938	445.3510742187501	49.18825531005861	-1626.030883789063	449.4863891601564	85.41098022460939	-1843.499633789063	351.5971679687501	31.0504379272461	-1813.446655273438	
113	0.4666666666666667	514.1622314453126	1152.78759765625	-1417.907348632813	405.2696228027345	1141.064697265625	-1402.247192382813	561.9064941406251	1067.765869140625	-1605.49072265625	332.8265991210938	1074.391479492188	-1595.585571289063	634.1619873046876	784.2290039062502	-1478.227172851563	615.3887329101564	760.5951538085939	-1531.08056640625	620.4240112304689	700.6762084960939	-1480.936645507813	592.3784790039064	678.5617675781251	-1527.499755859375	607.3853759765626	543.0165405273439	-1131.978393554688	613.6115722656251	481.4049682617189	-1132.751342773438	610.0466308593751	513.7581176757814	-1081.12939453125	603.9914550781251	453.974090576172	-1081.560791015625	557.5032958984376	537.4321289062501	-950.5806274414065	519.0987548828126	532.0048217773439	-919.6610107421877	581.8651123046876	542.7201538085939	-908.5629882812502	516.3404541015626	460.5864562988282	-925.6867675781252	612.7089843750001	485.5452575683595	-905.5310668945315	539.4495849609376	405.4971313476564	-933.7567138671877	540.6159667968751	378.7311401367188	-910.1436157226565	595.8720703125001	370.2728271484376	-924.4404907226565	621.9097900390626	447.0173339843751	-871.4668579101565	537.2700805664064	329.1809082031251	-870.7856445312502	594.3188476562501	319.9815979003907	-876.0015258789065	641.6594848632814	373.1297912597657	-846.0653076171877	587.1639404296876	264.0993347167969	-860.950622558594	267.0159301757813	791.5578613281252	-1572.901733398438	271.2661743164063	800.2774047851565	-1632.638671875	277.9365234375001	719.9622802734376	-1618.839477539063	299.5134887695313	729.9117431640626	-1675.478881835938	335.0152587890626	274.9032287597657	-1633.25439453125	329.3721313476563	261.4679565429688	-1685.26416015625	341.7344360351563	222.2649993896485	-1656.567626953125	350.3098449707032	214.291000366211	-1712.3857421875	416.397674560547	82.58094024658205	-1620.761108398438	388.8484497070314	41.73040390014649	-1624.012939453125	447.5282287597657	47.31568908691407	-1628.0361328125	450.5895080566407	75.13559722900392	-1847.378173828125	350.5251464843751	29.61241722106934	-1815.65673828125	
114	0.4708333333333333	515.1459960937501	1147.132690429688	-1430.059326171875	406.0191650390626	1135.8623046875	-1414.473876953125	562.2476196289064	1063.375	-1618.473388671875	332.9436035156251	1070.158569335938	-1608.535400390625	634.8351440429689	779.0158691406252	-1493.4560546875	616.4608154296876	755.9605102539064	-1546.784301757813	621.3098144531251	695.4680786132814	-1497.307006835938	593.5361328125001	673.8843383789064	-1544.330932617188	608.3041381835939	543.5350952148439	-1151.914306640625	614.4567871093751	481.8478393554689	-1151.303955078125	610.9522705078126	515.3971557617189	-1100.407592773438	604.8175659179689	455.6204528808595	-1099.465454101563	558.0553588867189	542.1572265625001	-970.9731445312502	519.6196899414064	537.3795776367189	-940.0212402343752	582.6699829101564	548.9481201171876	-929.4204101562502	516.9874267578126	465.7889404296876	-943.9313964843752	613.3112182617189	491.7742309570314	-924.4600830078127	540.5976562500001	410.4993896484376	-950.652282714844	541.0244140625001	383.8904113769532	-926.504821777344	597.0784301757814	375.8735351562501	-940.2293090820315	622.6528930664064	454.2035217285157	-889.328796386719	538.7747192382814	336.2787475585938	-885.6592407226565	595.9549560546876	326.8464355468751	-890.540222167969	642.7625122070314	381.1379699707032	-861.8806762695315	589.9976196289064	271.8401184082032	-874.6234130859377	267.5214843750001	787.9060058593752	-1587.114624023438	270.4879760742188	796.7655029296877	-1646.90478515625	277.7582702636719	716.2343139648439	-1633.512573242188	298.3587646484376	726.2381591796876	-1690.459838867188	336.5033874511719	272.0480651855469	-1641.119506835938	332.5401000976563	257.0261535644532	-1693.206787109375	344.4626464843751	219.4491271972657	-1663.067504882813	353.9899902343751	209.568099975586	-1718.517456054688	418.2454528808595	82.18666839599611	-1622.481201171875	390.3859252929689	42.0482406616211	-1625.16943359375	448.6412048339845	46.17609024047852	-1628.948608398438	453.1384582519532	68.17291259765626	-1850.122314453125	351.3293457031251	29.07184219360352	-1816.550537109375	
115	0.475	516.1857299804689	1141.275634765625	-1441.928588867188	406.894012451172	1130.5263671875	-1426.342895507813	562.6644897460939	1058.781005859375	-1631.336547851563	333.1363830566407	1066.400390625	-1621.892456054688	635.5189819335939	773.726989746094	-1508.795776367188	617.5697631835939	751.3912353515626	-1562.541625976563	622.1481933593751	690.2287597656251	-1513.818115234375	594.5895385742189	669.2639770507814	-1561.280517578125	609.2266235351564	543.8549804687501	-1172.104370117188	615.2955932617189	482.2898254394532	-1170.137573242188	611.7420043945314	516.8477783203126	-1120.005126953125	605.6136474609376	457.1166076660157	-1117.697875976563	558.4951171875001	546.6250000000001	-991.6121826171877	519.9882202148439	542.3295898437501	-960.6026000976565	582.8873291015626	554.5097656250001	-950.0974731445315	516.5874023437501	470.7419738769532	-962.5196533203127	613.9832763671876	497.6316528320314	-943.9229736328127	541.6406250000001	415.3024902343751	-968.1425781250002	543.1277465820314	389.5879211425782	-943.2656860351565	598.2291259765626	381.2572326660157	-956.649353027344	623.2864990234376	460.9550170898439	-907.6804809570315	539.9661865234376	342.7407531738282	-901.3027954101565	597.0632324218751	333.6577148437501	-905.8133544921877	643.7243041992189	388.767303466797	-878.4534301757815	591.6106567382814	278.7406616210938	-888.4959106445315	267.5247497558594	784.3342895507815	-1601.418090820313	269.6802368164063	793.249694824219	-1661.047607421875	277.2259216308594	712.7812500000001	-1647.606323242188	296.8353576660157	722.6909790039064	-1704.967529296875	338.7161865234376	269.8218078613282	-1649.012084960938	336.1364746093751	253.9162597656251	-1700.6064453125	348.9120483398438	216.2135162353516	-1669.948486328125	358.7044372558594	205.9048461914063	-1724.200439453125	421.1036376953126	81.61048889160158	-1623.54931640625	392.3336791992189	42.70392608642579	-1625.237548828125	450.5854492187501	44.81407928466798	-1628.9169921875	458.8596801757814	64.07843017578126	-1850.501708984375	353.6033325195313	29.93724632263184	-1816.792236328125	
